<svg width="216" height="61" viewBox="0 0 216 61" fill="none" xmlns="http://www.w3.org/2000/svg">
<path d="M112.219 60.3773C130.028 60.2822 142.596 47.8548 155.906 34.6936C156.033 34.5629 156.161 34.4322 156.302 34.3115C160.43 38.3098 164.822 42.1383 169.46 45.7814C192.01 63.1512 211.431 59.6574 212.252 59.483C213.03 59.3341 213.7 58.9511 214.116 58.4183C214.532 57.8854 214.66 57.2462 214.471 56.6411C214.282 56.0327 213.792 55.5077 213.107 55.18C212.423 54.8523 211.599 54.7483 210.815 54.8907C207.933 55.2838 204.986 55.2759 202.11 54.8671L201.847 5.70784C204.718 5.2699 207.665 5.2271 210.552 5.58137C211.333 5.72049 212.154 5.61269 212.835 5.2816C213.516 4.95052 214.001 4.42311 214.185 3.8149C214.368 3.20669 214.235 2.56726 213.815 2.03664C213.394 1.50602 212.72 1.12745 211.94 0.983862C211.117 0.828253 191.66 -2.46787 169.296 15.1318C164.7 18.8299 160.349 22.7082 156.261 26.7516L155.861 26.3737C142.412 13.3654 129.763 1.09272 111.903 1.1881C92.5022 1.29171 72.3602 18.9195 64.0705 27.0839C58.6592 21.2327 35.581 -1.22435 3.25959 3.07832C2.5466 3.16995 1.89803 3.45603 1.42984 3.8854C0.96166 4.31478 0.704404 4.85946 0.704073 5.42202C0.686404 5.54838 0.687085 5.67582 0.706102 5.80199C0.771685 6.10766 0.913991 6.40012 1.1249 6.66265C1.33582 6.92517 1.61121 7.15261 1.93532 7.33197C2.25943 7.51134 2.62591 7.63912 3.01382 7.70799C3.40174 7.77687 3.80347 7.78549 4.1961 7.73339C6.99846 7.36152 9.84231 7.21896 12.6812 7.30806L12.9375 55.3074C10.0998 55.4218 7.25523 55.3096 4.44837 54.9727C4.05501 54.9234 3.65281 54.9354 3.26499 55.0078C2.87717 55.0803 2.51142 55.2118 2.18886 55.3949C1.8663 55.5779 1.59331 55.8088 1.38569 56.0742C1.17806 56.3396 1.03991 56.6343 0.979205 56.9413C0.960973 57.0676 0.961654 57.1951 0.981234 57.3213C0.987574 57.8838 1.25063 58.4257 1.72338 58.85C2.19612 59.2744 2.84771 59.5535 3.56164 59.6375C36.03 63.6042 58.9046 40.7417 64.1127 34.9838C72.4247 43.0195 92.7797 60.4811 112.219 60.3773ZM111.928 5.88805C112.692 5.89041 113.455 5.92304 114.214 5.98583L114.479 55.5351C113.72 55.6027 112.957 55.6401 112.194 55.6473C111.719 55.6499 111.231 55.6525 110.743 55.6551L110.478 5.95579C110.965 5.92319 111.453 5.89059 111.928 5.88805ZM107.698 55.2913C106.434 55.0955 105.189 54.8349 103.97 54.5112L103.717 7.12192C104.931 6.78069 106.174 6.50669 107.436 6.30203L107.698 55.2913ZM117.507 55.139L117.247 6.34965C118.522 6.58343 119.772 6.89096 120.988 7.26968L121.238 54.139C120.029 54.5511 118.782 54.892 117.507 55.1589L117.507 55.139ZM100.679 8.09815L100.922 53.5575C99.6356 53.1244 98.426 52.6308 97.1776 52.0875L96.9508 9.60807C98.1933 9.05143 99.4361 8.54479 100.679 8.09815ZM184.812 11.2289L185.017 49.5383C183.729 48.8852 182.441 48.1721 181.012 47.3597L180.83 13.4402C182.187 12.6229 183.506 11.8959 184.812 11.2289ZM188.054 50.9522L187.835 9.78273C189.205 9.1754 190.525 8.65835 191.807 8.2015L192.043 52.5109C190.757 52.0577 189.431 51.5448 188.054 50.9522ZM199.077 54.3833C197.726 54.1138 196.396 53.7871 195.091 53.4046L194.844 7.20525C196.242 6.79778 197.575 6.48066 198.819 6.18401L199.077 54.3833ZM173.615 18.4688C175.035 17.3512 176.429 16.3337 177.811 15.3963L177.971 45.4459C176.579 44.5233 175.175 43.5208 173.743 42.4184C168.947 38.6327 164.413 34.6513 160.159 30.4908C164.37 26.3021 168.862 22.2891 173.615 18.4688ZM151.126 29.349L152.417 30.5522L151.139 31.779C141.955 40.8282 133.64 49.0427 124.288 53.0427L124.05 8.36333C133.444 12.2732 141.846 20.3585 151.126 29.349ZM33.8339 13.0352L34.0309 49.9346C34.0417 50.0408 34.0725 50.1451 34.1225 50.2442C32.8416 50.831 31.4577 51.3684 30.0608 51.8759L29.8401 10.5465C31.3453 11.0785 32.7993 11.6507 34.215 12.2631C33.9717 12.4761 33.8362 12.7506 33.8339 13.0352ZM26.8046 9.56269L27.036 52.8921C25.7541 53.2889 24.4077 53.6361 23.0481 53.9134L22.8057 8.51402C24.1685 8.84675 25.5057 9.17962 26.8046 9.56269ZM15.7893 7.46148C17.074 7.57462 18.4617 7.75721 19.7725 7.97022L20.0213 54.5595C18.7385 54.7864 17.3913 54.9736 16.0438 55.1108L15.7893 7.46148ZM37.0683 48.8484L36.8795 13.4989C46.0187 18.1402 53.9374 24.0944 60.2139 31.0446L60.2142 31.0946C54.0072 38.097 46.1528 44.1217 37.0683 48.8484ZM67.7895 31.0141C72.3745 26.3996 82.5062 16.9353 93.9026 11.0744L94.114 50.6538C82.6681 44.8548 72.4103 35.5195 67.8152 31.014L67.7895 31.0141Z" stroke="#18C29C" stroke-miterlimit="10"/>
</svg>
