<svg width="500" height="500" viewBox="0 0 500 500" fill="none" xmlns="http://www.w3.org/2000/svg">
<path d="M272.25 120.88C272.87 116.39 266.53 112.69 261.76 112.3C259.48 112.12 257.12 112.47 254.97 111.72C250.3 110.09 248.44 104.06 243.88 102.14C240.48 100.7 236.56 101.98 233.26 103.64C229.96 105.3 226.69 107.4 223.01 107.64C219.8 107.85 216.32 106.64 213.51 108.22C211.42 109.39 210.32 111.8 208.4 113.22C206.48 114.64 204.05 114.91 201.71 115.04C199.37 115.17 196.95 115.19 194.82 116.16C192.69 117.13 190.93 119.39 191.37 121.69L272.25 120.88Z" fill="#F5F5F5"/>
<path d="M451.59 176.92C452.21 172.42 445.86 168.73 441.1 168.34C438.82 168.16 436.46 168.51 434.31 167.76C429.64 166.13 427.78 160.1 423.22 158.18C419.82 156.74 415.9 158.02 412.6 159.68C409.3 161.34 406.03 163.43 402.35 163.68C399.14 163.88 395.66 162.68 392.85 164.26C390.76 165.43 389.66 167.84 387.74 169.26C385.82 170.68 383.39 170.95 381.05 171.07C378.71 171.19 376.29 171.22 374.16 172.2C372.03 173.18 370.27 175.43 370.71 177.73L451.59 176.92Z" fill="#F5F5F5"/>
<path d="M287.18 55.29C287.8 50.79 281.46 47.1 276.69 46.71C274.41 46.53 272.05 46.88 269.9 46.12C265.23 44.5 263.37 38.47 258.81 36.55C255.41 35.11 251.49 36.39 248.19 38.05C244.89 39.71 241.63 41.8 237.94 42.05C234.73 42.25 231.25 41.05 228.44 42.63C226.35 43.8 225.25 46.21 223.33 47.63C221.41 49.05 218.98 49.32 216.64 49.44C214.3 49.56 211.88 49.59 209.75 50.57C207.62 51.55 205.86 53.8 206.3 56.1L287.18 55.29Z" fill="#F5F5F5"/>
<path d="M465.29 84.41C466.19 77.83 456.91 72.41 449.94 71.86C446.62 71.59 443.16 72.1 440.01 71C433.19 68.63 430.46 59.81 423.8 57C418.8 54.9 413.09 56.77 408.26 59.2C403.43 61.63 398.67 64.68 393.26 65.03C388.57 65.33 383.48 63.59 379.38 65.88C376.32 67.59 374.72 71.11 371.9 73.19C369.08 75.27 365.54 75.66 362.12 75.84C358.7 76.02 355.12 76.06 352.04 77.49C348.96 78.92 346.35 82.21 347.04 85.57L465.29 84.41Z" fill="#EBEBEB"/>
<path d="M146.62 84.41C147.41 77.83 139.34 72.41 133.27 71.86C130.38 71.59 127.37 72.1 124.63 71C118.7 68.63 116.32 59.81 110.53 57C106.2 54.9 101.21 56.77 97.02 59.2C92.83 61.63 88.67 64.68 84 65C79.92 65.3 75.48 63.56 71.91 65.85C69.25 67.56 67.91 71.08 65.41 73.16C62.91 75.24 59.88 75.63 56.9 75.81C53.92 75.99 50.85 76.03 48.14 77.46C45.43 78.89 43.14 82.18 43.75 85.54L146.62 84.41Z" fill="#EBEBEB"/>
<path d="M470.57 406.84C471.874 407.461 473.039 408.339 473.994 409.421C474.95 410.504 475.676 411.769 476.13 413.14C477.025 415.89 477.278 418.807 476.87 421.67C476.24 427.21 473.1 432.8 469.71 437.23C465.04 433.16 463.97 426.06 463.65 422.42C463.15 416.67 465.73 405.98 470.57 406.84Z" fill="#F5F5F5"/>
<path d="M475.13 446.37C474.814 444.783 474.925 443.14 475.452 441.609C475.98 440.079 476.904 438.716 478.13 437.66C479.369 436.619 480.803 435.835 482.348 435.354C483.893 434.873 485.519 434.705 487.13 434.86C487.874 434.851 488.612 435.005 489.291 435.31C489.97 435.616 490.573 436.067 491.06 436.63C491.431 437.229 491.633 437.917 491.644 438.622C491.654 439.326 491.473 440.02 491.12 440.63C490.412 441.836 489.398 442.833 488.18 443.52C484.18 446.06 479.77 447.77 475.18 446.4" fill="#F5F5F5"/>
<path d="M469.15 463.35C469.166 462.966 469.219 462.584 469.31 462.21L469.88 459.14C470.395 455.713 471.466 452.393 473.05 449.31C474.695 446.233 477.128 443.648 480.1 441.82C481.005 441.282 481.972 440.856 482.98 440.55C483.252 440.461 483.529 440.391 483.81 440.34C483.906 440.329 484.004 440.329 484.1 440.34C482.761 440.8 481.471 441.392 480.25 442.11C477.375 443.976 475.018 446.538 473.4 449.56C471.848 452.609 470.756 455.871 470.16 459.24C469.87 460.53 469.65 461.58 469.47 462.29C469.39 462.651 469.283 463.005 469.15 463.35Z" fill="#E0E0E0"/>
<path d="M469.32 415.15C469.365 415.313 469.386 415.481 469.38 415.65C469.38 416.02 469.43 416.49 469.46 417.08C469.53 418.32 469.6 420.08 469.68 422.33C469.82 426.77 469.93 432.9 469.9 439.68C469.87 446.46 469.71 452.59 469.52 457.02C469.43 459.24 469.35 461.02 469.27 462.28C469.27 462.86 469.2 463.33 469.17 463.7C469.163 463.868 469.143 464.035 469.11 464.2C469.095 464.034 469.095 463.866 469.11 463.7C469.11 463.33 469.11 462.86 469.11 462.27C469.11 460.98 469.19 459.2 469.24 457.02C469.35 452.58 469.47 446.45 469.5 439.68C469.53 432.91 469.5 426.78 469.39 422.34C469.39 420.16 469.33 418.34 469.31 417.08C469.31 416.5 469.31 416.02 469.31 415.65C469.299 415.483 469.302 415.316 469.32 415.15Z" fill="#E0E0E0"/>
<path d="M467.06 449.74C466.497 446.383 465.141 443.209 463.107 440.481C461.072 437.752 458.416 435.548 455.36 434.05C453.8 433.3 451.77 432.81 450.49 433.97C449.21 435.13 449.49 437.22 450.12 438.83C451.492 442.182 453.829 445.051 456.835 447.074C459.84 449.096 463.378 450.181 467 450.19" fill="#F5F5F5"/>
<path d="M456.12 439.3C456.465 439.415 456.799 439.559 457.12 439.73C457.504 439.91 457.878 440.11 458.24 440.33C458.66 440.59 459.16 440.85 459.66 441.22C460.227 441.598 460.771 442.009 461.29 442.45C461.889 442.934 462.46 443.451 463 444C464.253 445.283 465.36 446.702 466.3 448.23C467.205 449.78 467.933 451.427 468.47 453.14C468.694 453.889 468.874 454.65 469.01 455.42C469.145 456.08 469.238 456.748 469.29 457.42C469.349 457.978 469.376 458.539 469.37 459.1C469.398 459.52 469.398 459.94 469.37 460.36C469.367 460.723 469.327 461.085 469.25 461.44C469.16 461.44 469.32 459.9 469.05 457.44C468.97 456.83 468.89 456.16 468.73 455.44C468.575 454.687 468.382 453.943 468.15 453.21C467.605 451.534 466.88 449.921 465.99 448.4C465.069 446.899 463.993 445.498 462.78 444.22C462.2 443.65 461.66 443.1 461.09 442.64C460.52 442.18 460.01 441.77 459.52 441.4C457.48 440 456.08 439.38 456.12 439.3Z" fill="#E0E0E0"/>
<path d="M32.32 410.53C33.5131 411.1 34.579 411.904 35.4536 412.896C36.3283 413.887 36.9937 415.045 37.41 416.3C38.2259 418.822 38.4584 421.495 38.09 424.12C37.51 429.19 34.63 434.3 31.53 438.36C27.26 434.63 26.28 428.13 25.98 424.8C25.52 419.54 27.89 409.75 32.32 410.53Z" fill="#F5F5F5"/>
<path d="M31.18 418.15C31.2119 418.298 31.2286 418.449 31.23 418.6C31.23 418.94 31.23 419.37 31.31 419.91C31.37 421.04 31.43 422.69 31.5 424.72C31.63 428.78 31.73 434.4 31.71 440.6C31.69 446.8 31.53 452.42 31.36 456.48C31.28 458.48 31.2 460.16 31.13 461.29C31.13 461.83 31.06 462.29 31.04 462.6C31.0319 462.751 31.0119 462.902 30.98 463.05C30.965 462.897 30.965 462.743 30.98 462.59C30.98 462.25 30.98 461.82 30.98 461.28C30.98 460.1 31.05 458.47 31.1 456.47C31.2 452.41 31.31 446.8 31.34 440.6C31.37 434.4 31.34 428.79 31.24 424.73C31.24 422.73 31.18 421.1 31.16 419.91C31.16 419.38 31.16 418.91 31.16 418.6C31.1477 418.45 31.1544 418.299 31.18 418.15Z" fill="#E0E0E0"/>
<path d="M29.1 449.81C28.5856 446.738 27.3467 443.834 25.4859 441.337C23.6251 438.839 21.1961 436.821 18.4 435.45C16.97 434.76 15.11 434.32 13.93 435.38C12.75 436.44 13.02 438.38 13.6 439.83C14.8525 442.891 16.9836 445.512 19.7244 447.363C22.4652 449.214 25.6928 450.212 29 450.23" fill="#F5F5F5"/>
<path d="M19.09 440.26C19.4048 440.353 19.7071 440.484 19.99 440.65C20.3326 440.816 20.6664 440.999 20.99 441.2C21.37 441.44 21.83 441.67 22.29 442.01C22.8097 442.355 23.3073 442.733 23.78 443.14C24.3372 443.589 24.8681 444.07 25.37 444.58C27.6946 446.916 29.4114 449.787 30.37 452.94C30.5771 453.626 30.744 454.324 30.87 455.03C30.9946 455.641 31.0814 456.259 31.13 456.88C31.1808 457.392 31.2042 457.906 31.2 458.42C31.2274 458.806 31.2274 459.194 31.2 459.58C31.1963 459.916 31.1629 460.25 31.1 460.58C31.01 460.58 31.16 459.17 30.91 456.93C30.8426 456.318 30.7425 455.711 30.61 455.11C30.4701 454.434 30.2932 453.766 30.08 453.11C29.5736 451.576 28.903 450.1 28.08 448.71C27.2222 447.331 26.2162 446.05 25.08 444.89C24.5945 444.378 24.0804 443.894 23.54 443.44C23.0794 443.036 22.5988 442.656 22.1 442.3C20.34 440.91 19.05 440.33 19.09 440.26Z" fill="#E0E0E0"/>
<path d="M475.26 463.36C475.26 463.51 372.94 463.62 246.74 463.62C120.54 463.62 18.19 463.51 18.19 463.36C18.19 463.21 120.5 463.1 246.74 463.1C372.98 463.1 475.26 463.22 475.26 463.36Z" fill="#263238"/>
<path d="M260.27 448.84C260.978 449.34 261.622 449.925 262.19 450.58C263.64 452.086 264.977 453.697 266.19 455.4C267.394 457.106 268.467 458.901 269.4 460.77C269.826 461.525 270.161 462.327 270.4 463.16C269.902 462.456 269.461 461.714 269.08 460.94C268.3 459.56 267.16 457.68 265.77 455.7C264.38 453.72 262.99 452.03 261.95 450.83C261.336 450.215 260.774 449.549 260.27 448.84Z" fill="#263238"/>
<path d="M277.81 428.8C277.763 429.255 277.669 429.704 277.53 430.14C277.3 430.98 277 432.22 276.66 433.74C274.861 441.706 274.257 449.896 274.87 458.04C274.98 459.6 275.1 460.87 275.19 461.74C275.273 462.188 275.304 462.645 275.28 463.1C275.146 462.666 275.049 462.221 274.99 461.77C274.83 460.9 274.66 459.64 274.5 458.07C274.092 453.989 274.039 449.88 274.34 445.79C274.659 441.697 275.328 437.639 276.34 433.66C276.73 432.14 277.09 430.91 277.34 430.08C277.459 429.641 277.617 429.212 277.81 428.8Z" fill="#263238"/>
<path d="M291.35 445.26C290.837 446.073 290.279 446.858 289.68 447.61C288.339 449.501 287.171 451.509 286.19 453.61C285.221 455.705 284.445 457.884 283.87 460.12C283.681 461.066 283.44 462 283.15 462.92C283.144 461.948 283.265 460.98 283.51 460.04C284.475 455.437 286.483 451.116 289.38 447.41C289.943 446.613 290.605 445.89 291.35 445.26Z" fill="#263238"/>
<path d="M173.05 399.39C174.497 400.084 175.791 401.06 176.854 402.263C177.918 403.465 178.729 404.869 179.24 406.39C180.232 409.45 180.512 412.695 180.06 415.88C179.36 422.04 175.86 428.26 172.06 433.18C166.88 428.65 165.68 420.76 165.33 416.71C164.77 410.32 167.64 398.43 173.02 399.38" fill="#455A64"/>
<path d="M178.12 443.35C177.767 441.59 177.885 439.767 178.463 438.068C179.041 436.368 180.057 434.851 181.41 433.67C182.787 432.514 184.38 431.643 186.097 431.109C187.814 430.575 189.62 430.388 191.41 430.56C193.06 430.68 194.84 431.17 195.78 432.56C196.187 433.223 196.408 433.983 196.42 434.76C196.432 435.538 196.235 436.305 195.85 436.98C195.059 438.32 193.932 439.43 192.58 440.2C188.09 443.02 183.22 444.92 178.14 443.39" fill="#455A64"/>
<path d="M171.47 462.24C171.495 461.815 171.558 461.393 171.66 460.98L172.28 457.56C172.863 453.751 174.055 450.06 175.81 446.63C177.634 443.204 180.341 440.328 183.65 438.3C184.656 437.701 185.731 437.225 186.85 436.88C187.152 436.787 187.459 436.71 187.77 436.65C187.879 436.632 187.991 436.632 188.1 436.65C186.608 437.168 185.174 437.838 183.82 438.65C180.621 440.722 177.999 443.57 176.2 446.93C174.478 450.325 173.261 453.953 172.59 457.7C172.28 459.13 172.02 460.29 171.83 461.09C171.746 461.484 171.625 461.869 171.47 462.24Z" fill="#263238"/>
<path d="M171.67 408.64C171.702 408.822 171.723 409.006 171.73 409.19C171.73 409.603 171.76 410.133 171.82 410.78C171.9 412.16 171.98 414.16 172.06 416.62C172.22 421.56 172.34 428.38 172.31 435.92C172.28 443.46 172.09 450.27 171.89 455.21C171.79 457.67 171.69 459.67 171.61 461.05C171.56 461.7 171.53 462.22 171.5 462.63C171.494 462.818 171.47 463.006 171.43 463.19C171.409 463.004 171.409 462.816 171.43 462.63C171.43 462.22 171.43 461.69 171.43 461.04C171.43 459.6 171.51 457.62 171.57 455.2C171.69 450.26 171.83 443.45 171.86 435.91C171.89 428.37 171.86 421.57 171.74 416.63C171.74 414.21 171.67 412.22 171.65 410.79C171.65 410.13 171.65 409.61 171.65 409.2C171.63 409.013 171.637 408.825 171.67 408.64Z" fill="#263238"/>
<path d="M169.15 447.1C168.525 443.368 167.02 439.838 164.759 436.804C162.498 433.769 159.547 431.317 156.15 429.65C154.42 428.82 152.15 428.28 150.73 429.57C149.31 430.86 149.62 433.18 150.32 434.97C151.841 438.683 154.426 441.864 157.75 444.113C161.073 446.362 164.987 447.578 169 447.61" fill="#455A64"/>
<path d="M157 435.5C157.382 435.622 157.751 435.782 158.1 435.98C158.53 436.174 158.948 436.394 159.35 436.64C159.81 436.93 160.35 437.21 160.93 437.64C161.557 438.064 162.162 438.521 162.74 439.01C163.416 439.557 164.06 440.141 164.67 440.76C166.064 442.183 167.291 443.76 168.33 445.46C169.342 447.181 170.151 449.013 170.74 450.92C170.997 451.75 171.2 452.595 171.35 453.45C171.5 454.193 171.603 454.944 171.66 455.7C171.727 456.321 171.757 456.945 171.75 457.57C171.782 458.039 171.782 458.511 171.75 458.98C171.742 459.38 171.698 459.778 171.62 460.17C171.51 460.17 171.69 458.46 171.39 455.73C171.31 454.987 171.19 454.25 171.03 453.52C170.859 452.683 170.645 451.855 170.39 451.04C169.784 449.176 168.979 447.382 167.99 445.69C166.964 444.021 165.764 442.466 164.41 441.05C163.817 440.432 163.193 439.844 162.54 439.29C161.95 438.75 161.33 438.29 160.79 437.9C158.5 436.29 156.94 435.58 157 435.5Z" fill="#263238"/>
<path d="M329.9 72.13C329.9 72.18 329.1 71.86 327.63 71.53C325.551 71.0764 323.408 70.9952 321.3 71.29C318.171 71.7114 315.22 72.9961 312.78 75C309.79 77.446 307.682 80.8037 306.78 84.56V84.66L306.6 85.34L306.34 84.7C304.879 81.133 302.364 78.0974 299.13 76C296.493 74.2587 293.452 73.2256 290.3 73C288.186 72.8516 286.061 73.0475 284.01 73.58C282.56 73.96 281.79 74.3 281.78 74.26C281.947 74.1468 282.129 74.056 282.32 73.99C282.854 73.7633 283.402 73.5696 283.96 73.41C286.527 72.6561 289.226 72.4597 291.875 72.834C294.524 73.2082 297.062 74.1445 299.32 75.58C302.64 77.7096 305.224 80.8101 306.72 84.46H306.29V84.35C307.22 80.4974 309.396 77.0596 312.48 74.57C315.017 72.5849 318.058 71.3484 321.26 71C323.403 70.7396 325.575 70.8718 327.67 71.39C328.238 71.5304 328.795 71.7075 329.34 71.92C329.531 71.9766 329.719 72.0468 329.9 72.13Z" fill="#263238"/>
<path d="M423.28 93.94C423.28 93.94 422.83 93.82 422.02 93.65C420.881 93.4186 419.711 93.3848 418.56 93.55C416.862 93.7795 415.261 94.4714 413.93 95.55C412.301 96.8835 411.153 98.7131 410.66 100.76L410.49 101.45L410.22 100.8C409.427 98.8603 408.064 97.2073 406.31 96.06C404.876 95.1169 403.223 94.559 401.51 94.44C400.356 94.344 399.194 94.4386 398.07 94.72C397.27 94.92 396.85 95.09 396.83 95.05C396.922 94.9836 397.023 94.9297 397.13 94.89C397.419 94.7503 397.721 94.6365 398.03 94.55C399.164 94.1934 400.353 94.0443 401.54 94.11C403.317 94.1945 405.041 94.7426 406.54 95.7C408.385 96.8811 409.82 98.6028 410.65 100.63H410.21V100.57C410.726 98.4276 411.94 96.5175 413.66 95.14C414.83 94.2156 416.198 93.5755 417.658 93.2701C419.117 92.9646 420.628 93.0023 422.07 93.38C422.382 93.4565 422.686 93.5602 422.98 93.69C423.097 93.7509 423.199 93.8362 423.28 93.94Z" fill="#263238"/>
<path d="M366.66 111.12C366.66 111.12 366.16 111.69 365.26 112.7C359.785 118.927 356.77 126.938 356.78 135.23V135.46H356.26C355.737 132.058 354.627 128.772 352.98 125.75C351.633 123.283 349.95 121.015 347.98 119.01C346.652 117.656 345.203 116.428 343.65 115.34C342.55 114.58 341.91 114.2 341.93 114.15C342.101 114.212 342.266 114.293 342.42 114.39C342.73 114.57 343.21 114.79 343.77 115.17C345.38 116.206 346.878 117.405 348.24 118.75C352.801 123.233 355.793 129.069 356.77 135.39H356.24C356.24 135.32 356.24 135.24 356.24 135.16C356.193 128.732 358.025 122.431 361.51 117.03C362.558 115.405 363.757 113.881 365.09 112.48C365.55 111.98 365.96 111.64 366.22 111.39C366.48 111.14 366.65 111.1 366.66 111.12Z" fill="#263238"/>
<path d="M214 105.49C202.8 104.29 190.43 106.33 181.33 112.97C171.43 120.18 166.61 132.89 165.52 145.09C164.43 157.29 173.29 170.86 180.9 174.6L176.52 185.6L190.47 179.47C196.87 180.47 212.36 180.47 219.52 178.25C240.38 171.84 247.19 158.41 247.05 139.55C246.94 122.41 231.09 107.32 214 105.49Z" fill="white"/>
<path d="M214 105.49L214.68 105.57L216.68 105.85C217.56 105.96 218.61 106.29 219.87 106.58C220.547 106.754 221.215 106.964 221.87 107.21C222.627 107.448 223.371 107.725 224.1 108.04C232.991 111.697 240.225 118.5 244.42 127.15C245.721 130.035 246.609 133.088 247.06 136.22C247.38 139.626 247.38 143.054 247.06 146.46C246.718 150.111 245.922 153.706 244.69 157.16C243.368 160.836 241.362 164.229 238.78 167.16C236.028 170.197 232.765 172.728 229.14 174.64C225.385 176.666 221.376 178.183 217.22 179.15C212.856 179.934 208.434 180.345 204 180.38C199.465 180.516 194.926 180.319 190.42 179.79H190.57L190.34 179.89L176.63 185.89L176 186.16L176.25 185.52L180.63 174.52L180.76 174.87C177.474 173.014 174.637 170.456 172.45 167.38C170.277 164.483 168.529 161.291 167.26 157.9C166.002 154.657 165.299 151.226 165.18 147.75C165.18 146.9 165.23 146.05 165.25 145.21C165.27 144.37 165.43 143.56 165.51 142.74C165.74 141.11 166.01 139.51 166.34 137.94C167.536 131.995 169.857 126.333 173.18 121.26C176.085 116.897 179.977 113.279 184.54 110.7C186.513 109.604 188.57 108.665 190.69 107.89C192.578 107.228 194.505 106.684 196.46 106.26C199.579 105.593 202.752 105.215 205.94 105.13C207.941 105.071 209.944 105.121 211.94 105.28L213.48 105.44L214 105.51H213.47L211.93 105.4C210.57 105.4 208.56 105.23 205.93 105.4C202.76 105.516 199.607 105.921 196.51 106.61C194.567 107.042 192.653 107.597 190.78 108.27C188.681 109.045 186.647 109.988 184.7 111.09C180.202 113.661 176.37 117.25 173.51 121.57C170.271 126.577 168.008 132.152 166.84 138C166.51 139.56 166.25 141.15 166.03 142.77C165.94 143.58 165.86 144.39 165.77 145.22C165.68 146.05 165.68 146.86 165.71 147.7C165.83 151.125 166.526 154.506 167.77 157.7C169.036 161.025 170.763 164.155 172.9 167C175.041 170.007 177.816 172.506 181.03 174.32L181.26 174.44L181.17 174.68C179.73 178.3 178.273 181.967 176.8 185.68L176.42 185.32L190.13 179.32L190.36 179.21H190.44H190.52C194.996 179.744 199.505 179.941 204.01 179.8C208.369 179.761 212.717 179.36 217.01 178.6C221.116 177.644 225.077 176.148 228.79 174.15C232.366 172.276 235.585 169.788 238.3 166.8C240.844 163.923 242.823 160.591 244.13 156.98C245.359 153.566 246.155 150.012 246.5 146.4C246.836 143.03 246.862 139.635 246.58 136.26C246.145 133.155 245.28 130.126 244.01 127.26C241.69 122.396 238.375 118.073 234.28 114.57C231.199 111.944 227.732 109.809 224 108.24C223.25 107.87 222.49 107.66 221.79 107.39C221.135 107.138 220.468 106.921 219.79 106.74C218.54 106.44 217.5 106.09 216.63 105.96L214.63 105.63C214.23 105.55 214 105.49 214 105.49Z" fill="black"/>
<path d="M204.73 158.28L188.14 145.95L192.45 140.17L203.57 148.44L218.83 130.21L224.36 134.83L204.73 158.28Z" fill="#FF725E"/>
<path d="M267.6 317.88L196.1 337.31C195.1 354.55 201.68 371.72 212.27 385.31C215.55 389.53 219.27 393.51 221.56 398.31C225.38 406.16 225.15 415.49 222.73 423.87C220.31 432.25 215.86 439.87 211.4 447.39C207.28 443.31 200.4 442.87 195.25 445.61C190.1 448.35 187.3 457.45 186.1 463.12H214.49C215.785 462.963 217.029 462.523 218.135 461.832C219.241 461.141 220.181 460.215 220.89 459.12C225.19 453.12 226.47 451.58 228.59 448.46L257.52 405.83C250.557 397.469 246.565 387.034 246.17 376.16C245.81 365.38 261.24 326.59 267.6 317.88Z" fill="#FF725E"/>
<g opacity="0.3">
<path d="M250 358.57C254.92 343.17 263.3 323.73 267.57 317.88L196.07 337.31C195.627 345.208 196.644 353.12 199.07 360.65C199.07 360.65 217.76 353.65 227.16 354.77C236.56 355.89 250 358.57 250 358.57Z" fill="black"/>
</g>
<path d="M47.21 156.91C45 159 25.26 181.11 23 221.65C23 221.65 20.43 235.05 22 236.65C23.57 238.25 25.93 232.18 25.93 232.18C25.93 232.18 21.57 240.09 23.82 254.18C26.07 268.27 26.41 275.18 42.74 311.73C59.07 348.28 104.09 359.31 104.09 359.31C104.09 359.31 152.52 349.45 154.21 348.89C155.9 348.33 187.42 344.38 208.21 335.37C229 326.36 240.3 334.81 248.21 342.69C256.12 350.57 287.6 381.53 291 389.41C294.4 397.29 299.44 407.99 303.38 413.62C307.32 419.25 314.08 432.19 313.51 438.95C312.94 445.71 302.25 456.4 311.26 463.16H336.6C336.6 463.16 334.91 442.89 327.6 425.44C320.29 407.99 307.33 386.59 307.89 368.58C308.45 350.57 307.33 327.48 306.21 319.04C305.09 310.6 303.39 301.89 303.39 301.89L300.58 306.09C300.58 306.09 301.14 280.76 282 263.31C262.86 245.86 242.59 227.31 204.31 231.22C166.03 235.13 153.08 239.66 141.82 236.28C130.56 232.9 122.12 231.78 119.82 223.34L127.14 188.43C127.14 188.43 128.27 171.54 123.77 162.54C119.27 153.54 102.07 145 92.25 142.87C87.33 141.83 63 141.71 47.21 156.91Z" fill="#FF725E"/>
<path d="M91.42 190.32C91.36 190.4 90.68 189.8 89.42 189.23C87.7221 188.467 85.8392 188.213 84 188.5C82.1858 188.809 80.4969 189.628 79.13 190.86C78.08 191.81 77.61 192.59 77.54 192.54C77.817 191.794 78.2739 191.127 78.87 190.6C80.2234 189.204 81.9924 188.285 83.9121 187.978C85.8319 187.672 87.7993 187.995 89.52 188.9C90.258 189.214 90.9097 189.701 91.42 190.32Z" fill="#263238"/>
<path d="M159.54 345.71C155.465 342.411 152.311 338.116 150.384 333.24C148.457 328.364 147.822 323.073 148.54 317.88L84.9 338.56C101.38 351.34 112.3 370.19 118.9 389.96C125.5 409.73 128.25 430.55 130.9 451.23C120.11 455.9 122.15 467.74 122.15 467.74H152C155.56 463.64 158.25 455.8 158.2 450.36C158.2 448.7 156.12 445.29 155.2 442C146.48 410.55 149 376.6 159.54 345.71Z" fill="#FF725E"/>
<path d="M81.68 335.68C81.46 335.92 79.3 334.49 76.39 331.5C74.6921 329.739 73.1278 327.854 71.71 325.86C69.9907 323.406 68.4597 320.825 67.13 318.14C65.832 315.435 64.7454 312.633 63.88 309.76C63.1902 307.414 62.6721 305.021 62.33 302.6C61.78 298.46 61.99 295.88 62.33 295.86C62.67 295.84 63.16 298.33 64.15 302.25C64.64 304.25 65.32 306.51 66.15 309.02C67.1126 311.743 68.2174 314.413 69.46 317.02C70.7354 319.6 72.1474 322.11 73.69 324.54C75.14 326.77 76.53 328.72 77.77 330.32C80.25 333.49 82 335.39 81.68 335.68Z" fill="#FF725E"/>
<path d="M348 177.14C346.21 167.54 342.38 158.07 335.52 151.14C328.66 144.21 318.43 140.14 308.9 142.25C295.02 145.31 291.4 156.09 289.05 170.1C286.7 184.11 294.4 199.1 292.47 213.22C290.54 227.34 272.64 245.45 259.1 249.74L274 266.17C285.048 266.171 295.96 263.739 305.962 259.048C315.964 254.357 324.811 247.521 331.874 239.026C338.938 230.531 344.044 220.586 346.831 209.895C349.618 199.205 350.017 188.032 348 177.17V177.14Z" fill="#FF725E"/>
<path d="M43.57 245.3C42.1042 250.396 41.6423 255.728 42.21 261L47.47 252.33C46.7568 257.231 47.8209 262.225 50.47 266.41L53.77 257.47C56.0071 264.509 59.7621 270.971 64.77 276.4" fill="#FF725E"/>
<path d="M64.76 276.35C64.76 276.35 64.64 276.27 64.45 276.07C64.26 275.87 63.97 275.59 63.62 275.2C62.91 274.41 61.91 273.2 60.75 271.67C57.5881 267.363 55.1402 262.575 53.5 257.49H54C53 260.26 51.88 263.28 50.72 266.44L50.54 266.93L50.26 266.49C49.4506 265.201 48.7802 263.83 48.26 262.4C47.096 259.147 46.7525 255.657 47.26 252.24L47.72 252.4L42.44 261.05L42.1 261.59L42 261C41.6067 257.17 41.7683 253.304 42.48 249.52C42.74 248.16 43.01 247.11 43.21 246.4C43.31 246.04 43.4 245.78 43.46 245.6C43.52 245.42 43.56 245.32 43.57 245.33C43.5196 245.702 43.4427 246.069 43.34 246.43C43.18 247.15 42.94 248.2 42.72 249.56C42.1047 253.326 42.0071 257.158 42.43 260.95L42.03 260.86L47.25 252.19L47.9 251.12L47.71 252.35C47.0106 257.185 48.0527 262.112 50.65 266.25H50.19L53.5 257.32L53.74 256.66L53.95 257.33C55.5516 262.375 57.912 267.146 60.95 271.48C62.07 273.07 63.04 274.26 63.71 275.07L64.48 276C64.5866 276.105 64.6806 276.223 64.76 276.35Z" fill="#263238"/>
<path d="M112.94 354.37L41.79 308.37C43.93 319.68 58.01 341.52 64.79 352.3L65.09 450.42C56.09 449.92 48.09 454.11 47.54 463.13H81.05C81.05 463.13 84.8 450.86 87.31 446.31C89.82 441.76 86.62 433.77 86.62 433.77C86.62 405.55 96 376.72 112.94 354.37Z" fill="#FF725E"/>
<path d="M66.76 305.81C66.8065 306.067 66.8299 306.328 66.83 306.59C66.89 307.1 66.83 307.85 66.99 308.8C67.2754 311.52 67.8487 314.201 68.7 316.8C69.9543 320.638 71.5856 324.343 73.57 327.86C75.9887 332.177 78.6809 336.336 81.63 340.31C84.6333 344.225 88.1173 347.746 92 350.79C95.52 353.69 98.78 356.21 101.39 358.49C103.483 360.255 105.448 362.166 107.27 364.21C107.93 364.92 108.36 365.55 108.68 365.94C108.852 366.133 109.003 366.345 109.13 366.57C108.937 366.4 108.759 366.212 108.6 366.01C108.25 365.64 107.8 365.01 107.12 364.35C105.238 362.367 103.234 360.503 101.12 358.77C98.48 356.53 95.2 354.05 91.65 351.16C87.7139 348.098 84.1883 344.542 81.16 340.58C78.1961 336.592 75.5034 332.409 73.1 328.06C71.1198 324.507 69.5081 320.761 68.29 316.88C67.4688 314.261 66.9487 311.557 66.74 308.82C66.6802 308.078 66.6601 307.334 66.68 306.59C66.6805 306.328 66.7073 306.067 66.76 305.81Z" fill="#263238"/>
<path d="M157.1 350.09C160.844 341.209 166.076 333.032 172.57 325.91C168.075 328.001 163.921 330.758 160.25 334.09C162.768 327.75 165.721 321.592 169.09 315.66" fill="#FF725E"/>
<path d="M169.09 315.66C169.056 315.786 169.005 315.907 168.94 316.02L168.42 317.02L166.49 320.77C164.86 323.99 162.67 328.61 160.49 334.18L160.1 333.91C162.976 331.28 166.159 329.007 169.58 327.14C170.58 326.6 171.58 326.14 172.47 325.67L173.65 325.12L172.78 326.12C168.18 331.163 164.186 336.728 160.88 342.7C159.63 344.97 158.71 346.84 158.09 348.13L157.39 349.62C157.318 349.801 157.224 349.972 157.11 350.13C157.155 349.944 157.219 349.763 157.3 349.59C157.44 349.23 157.63 348.71 157.92 348.05C158.48 346.73 159.36 344.83 160.57 342.54C163.798 336.481 167.768 330.847 172.39 325.77L172.69 326.18C171.77 326.62 170.8 327.1 169.83 327.63C166.447 329.487 163.289 331.729 160.42 334.31L159.65 335.01L160.04 334.01C161.861 329.444 163.931 324.98 166.24 320.64C167.09 319.04 167.8 317.8 168.29 316.95L168.88 315.95C168.935 315.843 169.006 315.746 169.09 315.66Z" fill="#263238"/>
<path d="M266.05 360.65L265.87 360.49L265.39 360.02L263.56 358.14C261.98 356.5 259.73 354.14 256.96 351.14C253.782 347.608 250.396 344.269 246.82 341.14C244.687 339.333 242.375 337.748 239.92 336.41C237.272 334.996 234.452 333.931 231.53 333.24C228.607 332.57 225.604 332.314 222.61 332.48C219.817 332.654 217.045 333.083 214.33 333.76C209.726 334.947 205.201 336.42 200.78 338.17C196.98 339.62 193.92 340.82 191.78 341.56C190.72 341.95 189.87 342.21 189.3 342.39L188.65 342.59C188.5 342.64 188.42 342.65 188.42 342.64L188.63 342.54L189.26 342.29C189.82 342.08 190.66 341.79 191.71 341.37C193.84 340.57 196.88 339.37 200.71 337.83C205.129 336.022 209.662 334.506 214.28 333.29C217.024 332.596 219.826 332.154 222.65 331.97C225.691 331.794 228.742 332.053 231.71 332.74C234.675 333.438 237.536 334.521 240.22 335.96C242.716 337.312 245.063 338.925 247.22 340.77C250.793 343.934 254.166 347.318 257.32 350.9L263.8 358.03L265.55 359.97L266 360.49C266 360.58 266.06 360.64 266.05 360.65Z" fill="#263238"/>
<g opacity="0.3">
<path d="M117.81 223.66C110.6 226.28 104.81 231.45 102.18 237.59L106.75 235.76C101.657 241.912 98.8641 249.644 98.85 257.63C93.66 249.01 94.28 235.77 98.61 231.63C99.8195 229.737 101.411 228.118 103.283 226.876C105.155 225.635 107.266 224.798 109.48 224.42C116.83 223.26 117.81 223.66 117.81 223.66Z" fill="black"/>
</g>
<path d="M292.38 275.87C292.01 275.417 291.676 274.935 291.38 274.43C290.79 273.43 289.89 272.12 288.73 270.48C287.57 268.84 286.13 266.95 284.42 264.92C282.71 262.89 280.72 260.78 278.51 258.67C276.3 256.56 274.04 254.67 271.94 253.1C269.84 251.53 267.86 250.16 266.16 249.1C264.46 248.04 263.06 247.21 262.08 246.68C261.558 246.419 261.056 246.118 260.58 245.78C261.129 245.975 261.661 246.216 262.17 246.5C263.17 246.98 264.62 247.76 266.35 248.79C268.377 249.997 270.339 251.309 272.23 252.72C276.881 256.166 281.099 260.161 284.79 264.62C286.48 266.67 287.92 268.62 289.04 270.27C290.16 271.92 291.04 273.33 291.55 274.32C291.864 274.816 292.141 275.334 292.38 275.87Z" fill="#263238"/>
<path d="M328 178C327.927 177.813 327.877 177.619 327.85 177.42C327.76 177.04 327.69 176.48 327.51 175.76C327.038 173.708 326.389 171.7 325.57 169.76C324.335 166.831 322.714 164.08 320.75 161.58C318.304 158.429 315.334 155.723 311.97 153.58L312.35 153.31C312.89 155.73 313.35 158.31 313.79 160.86C314.567 165.733 315.051 170.649 315.24 175.58V176.49L314.76 175.71C313.174 173.127 311.162 170.832 308.81 168.92L309.14 168.73C309.83 172.92 310.39 176.35 310.8 178.79C310.97 179.95 311.11 180.87 311.22 181.56C311.284 181.89 311.321 182.224 311.33 182.56C311.229 182.25 311.152 181.932 311.1 181.61L310.57 178.86C310.13 176.43 309.5 173 308.74 168.86L308.65 168.34L309.07 168.67C311.475 170.594 313.534 172.914 315.16 175.53L314.72 175.67C314.5 170.76 314.006 165.865 313.24 161.01C312.83 158.42 312.34 155.91 311.82 153.49L311.68 152.89L312.2 153.22C315.602 155.392 318.601 158.139 321.06 161.34C323.033 163.879 324.639 166.683 325.83 169.67C326.633 171.635 327.239 173.675 327.64 175.76C327.8 176.49 327.84 177.06 327.9 177.45C327.945 177.631 327.979 177.815 328 178Z" fill="#263238"/>
<path d="M99.24 364.53C98.8441 364.465 98.4555 364.361 98.08 364.22L94.84 363.22L83.44 359.52L83.7 359.16C85.1587 361.04 86.9563 362.631 89 363.85L88.77 364.3C80.0411 360.958 72.201 355.647 65.86 348.78C64.3964 347.19 63.021 345.521 61.74 343.78L60.74 342.32C60.6084 342.163 60.5006 341.988 60.42 341.8C60.5673 341.941 60.7013 342.095 60.82 342.26L61.89 343.66C62.89 344.84 64.23 346.58 66.12 348.54C71.0256 353.704 76.7744 357.995 83.12 361.23C85.12 362.23 87.06 363.09 88.97 363.85L88.75 364.3C86.6491 363.046 84.8063 361.403 83.32 359.46L82.86 358.86L83.58 359.1L94.93 363L98.12 364.13C98.503 364.234 98.8774 364.368 99.24 364.53Z" fill="#263238"/>
<path d="M30.72 282.75C30.72 282.75 53.86 301.49 60.72 297.65C67.58 293.81 132.59 233.65 132.59 233.65L147 237.76C147 237.76 82.79 302.48 81.41 307.71C81.41 307.71 72.12 320.57 76.9 330.71C81.68 340.85 103.57 360.71 103.57 360.71C103.57 360.71 70.43 351.33 62.32 339.32C54.21 327.31 46.17 313 46.17 313L40.76 307.38C36.7 300.71 33.46 292.27 30.72 282.75Z" fill="#263238"/>
<path d="M157.94 348.2C157.94 348.2 181.94 334.2 185.61 321.67C189.28 309.14 190.96 232.67 190.96 232.67L169.39 235.55C169.39 235.55 175.79 305.66 172.57 317.83C169.35 330 157.94 348.2 157.94 348.2Z" fill="#263238"/>
<path d="M140.55 242.11C152.623 243.493 164.837 243.027 176.77 240.73L175.87 234.44C163.439 236.312 150.863 237.038 138.3 236.61" fill="#263238"/>
<path d="M99.31 146.33C99.31 146.33 115.94 129.1 119.85 127.45C123.76 125.8 126.21 127.45 127.24 131.36C128.27 135.27 126.38 150.08 122.08 159.71" fill="#FF725E"/>
<path d="M48.53 155.69C48.53 155.69 52.25 141.61 55.37 134.44C58.49 127.27 70.08 110.55 73 111.65C75.92 112.75 78.7 116.43 82.56 125.8C86.42 135.17 89.35 142.54 89.35 142.54" fill="#FF725E"/>
<path d="M121.62 177.74C120.997 177.418 120.294 177.282 119.595 177.348C118.897 177.415 118.232 177.682 117.681 178.117C117.131 178.551 116.717 179.136 116.49 179.8C116.262 180.464 116.231 181.179 116.4 181.86C116.687 182.916 117.287 183.861 118.12 184.57C118.832 184.934 119.62 185.126 120.42 185.13C121.125 185.079 121.791 184.789 122.31 184.31C122.728 184.009 123.07 183.615 123.31 183.16C123.777 182.05 123.813 180.805 123.41 179.67C123.206 179.066 122.826 178.537 122.317 178.151C121.809 177.766 121.197 177.543 120.56 177.51" fill="#263238"/>
<path d="M115.64 177.86C121.133 183.358 127.732 187.626 135 190.38C143.4 193.49 149.56 197 146.91 203.88C144.26 210.76 134.81 219.88 128.19 222C121.57 224.12 115.19 221.88 108.26 225.06C101.33 228.24 96 237.76 96 237.76" fill="#FF725E"/>
<path d="M96 237.76C96.0251 237.672 96.0621 237.588 96.11 237.51C96.2 237.34 96.33 237.1 96.51 236.79C96.88 236.16 97.44 235.26 98.23 234.13C99.1865 232.759 100.229 231.45 101.35 230.21C102.813 228.539 104.495 227.072 106.35 225.85C106.885 225.508 107.439 225.198 108.01 224.92C108.61 224.641 109.224 224.394 109.85 224.18C111.179 223.706 112.553 223.371 113.95 223.18C116.83 222.77 119.95 222.9 123.15 222.64C124.789 222.516 126.409 222.211 127.98 221.73C129.596 221.169 131.135 220.406 132.56 219.46C134.061 218.498 135.489 217.425 136.83 216.25C138.224 215.055 139.54 213.772 140.77 212.41C143.283 209.806 145.284 206.753 146.67 203.41C147.294 201.84 147.315 200.095 146.73 198.51C146.051 197.035 144.983 195.773 143.64 194.86C141.105 193.157 138.363 191.786 135.48 190.78C132.963 189.851 130.52 188.735 128.17 187.44C124.769 185.563 121.575 183.334 118.64 180.79C117.64 179.88 116.84 179.14 116.33 178.63L115.76 178.03C115.694 177.964 115.637 177.89 115.59 177.81C115.59 177.81 115.67 177.81 115.8 177.99L116.4 178.55C116.93 179.04 117.72 179.75 118.77 180.63C121.742 183.103 124.951 185.277 128.35 187.12C130.698 188.381 133.135 189.47 135.64 190.38C138.567 191.379 141.351 192.757 143.92 194.48C145.343 195.435 146.474 196.764 147.19 198.32C147.835 200.014 147.835 201.886 147.19 203.58C145.787 206.988 143.751 210.099 141.19 212.75C139.942 214.129 138.606 215.425 137.19 216.63C135.827 217.821 134.376 218.907 132.85 219.88C131.385 220.845 129.807 221.624 128.15 222.2C126.543 222.689 124.886 222.995 123.21 223.11C119.95 223.36 116.87 223.22 114.03 223.6C112.669 223.763 111.328 224.068 110.03 224.51C109.414 224.714 108.81 224.951 108.22 225.22C107.664 225.487 107.123 225.784 106.6 226.11C104.758 227.302 103.077 228.727 101.6 230.35C100.476 231.573 99.4205 232.859 98.44 234.2C97.63 235.3 97.04 236.2 96.64 236.79L96.2 237.48C96.1463 237.582 96.0791 237.676 96 237.76Z" fill="#263238"/>
<path d="M88.26 176.17C87.5016 175.782 86.6481 175.62 85.8003 175.702C84.9525 175.784 84.1459 176.107 83.4759 176.633C82.8059 177.159 82.3005 177.865 82.0195 178.669C81.7384 179.473 81.6935 180.341 81.89 181.17C82.2472 182.457 82.978 183.609 83.99 184.48C84.8665 184.917 85.8307 185.149 86.81 185.16C87.6693 185.103 88.4822 184.75 89.11 184.16C89.6247 183.798 90.0491 183.323 90.35 182.77C90.9125 181.41 90.9552 179.89 90.47 178.5C90.2166 177.769 89.7511 177.131 89.133 176.666C88.5149 176.201 87.7723 175.931 87 175.89" fill="#263238"/>
<path d="M146.92 198.34C146.668 197.524 146.253 196.768 145.699 196.118C145.146 195.468 144.465 194.938 143.7 194.56C142.264 193.896 140.719 193.499 139.14 193.39C137.08 193.143 135.013 192.98 132.94 192.9C131.77 192.9 130.33 193.03 129.84 194.28C129.35 195.53 130.14 196.84 130.84 197.85C132.298 200.052 134.121 201.99 136.23 203.58C137.216 204.325 138.372 204.815 139.593 205.005C140.814 205.195 142.064 205.08 143.23 204.67C144.459 204.087 145.473 203.132 146.129 201.94C146.784 200.748 147.047 199.38 146.88 198.03" fill="#263238"/>
<path d="M96.44 207.81C96.3411 208.57 96.4809 209.343 96.84 210.02C97.9228 211.817 99.3707 213.367 101.09 214.57C103.583 216.437 106.288 218.001 109.15 219.23C110.827 219.966 112.567 220.549 114.35 220.97C116.279 221.379 118.233 221.657 120.2 221.8C122.153 221.962 124.12 221.8 126.02 221.32C127.778 220.833 129.429 220.022 130.89 218.93C133.363 217.026 135.43 214.645 136.97 211.93C138.032 210.114 139 208.245 139.87 206.33L140.61 204.77C140.691 204.587 140.784 204.41 140.89 204.24C140.852 204.441 140.788 204.636 140.7 204.82C140.54 205.23 140.32 205.76 140.06 206.41C139.253 208.367 138.328 210.274 137.29 212.12C135.758 214.898 133.676 217.335 131.17 219.28C129.671 220.413 127.976 221.261 126.17 221.78C124.211 222.276 122.184 222.445 120.17 222.28C118.176 222.136 116.194 221.852 114.24 221.43C112.428 220.994 110.661 220.391 108.96 219.63C106.071 218.368 103.35 216.752 100.86 214.82C99.1238 213.565 97.689 211.939 96.66 210.06C96.3978 209.533 96.2771 208.947 96.31 208.36C96.3212 208.171 96.3651 207.984 96.44 207.81Z" fill="#263238"/>
<g opacity="0.3">
<path d="M61.49 148.54C62.5042 140.444 65.1546 132.639 69.28 125.6C70.03 124.31 71.35 122.87 72.73 123.44C73.3948 123.812 73.9027 124.413 74.16 125.13C77.0936 131.009 79.5191 137.128 81.41 143.42C74.2999 143.647 67.425 146.021 61.69 150.23" fill="black"/>
</g>
<g opacity="0.3">
<path d="M107.87 147.7C112.34 149.75 114.56 152.7 118.15 156.01C120.954 150.608 122.744 144.738 123.43 138.69C123.56 137.57 123.55 136.24 122.64 135.58C121.52 134.77 119.98 135.58 118.9 136.47C114.784 139.745 111.089 143.517 107.9 147.7" fill="black"/>
</g>
<path d="M140.66 196.52C140.6 196.66 138.66 195.9 136.1 195.69C133.54 195.48 131.49 195.87 131.46 195.69C132.947 195.108 134.559 194.919 136.14 195.14C137.742 195.196 139.3 195.672 140.66 196.52Z" fill="white"/>
<path d="M38.1 302.51C38.3046 302.502 38.5094 302.519 38.71 302.56C39.11 302.61 39.71 302.72 40.45 302.89C42.5771 303.397 44.5649 304.371 46.27 305.74C48.6739 307.896 50.7492 310.393 52.43 313.15C54.5534 316.464 56.4157 319.937 58 323.54C59.73 327.34 61.29 330.99 63 334.18C64.4458 337.023 66.1638 339.719 68.13 342.23C69.4573 343.92 70.959 345.465 72.61 346.84C73.78 347.84 74.5 348.27 74.47 348.32C74.2792 348.237 74.0981 348.133 73.93 348.01C73.4312 347.705 72.9504 347.371 72.49 347.01C70.7733 345.681 69.2133 344.161 67.84 342.48C65.8217 339.976 64.0595 337.276 62.58 334.42C60.86 331.22 59.28 327.56 57.58 323.77C55.9874 320.179 54.122 316.716 52 313.41C50.3606 310.669 48.3405 308.174 46 306C44.3443 304.642 42.4234 303.644 40.36 303.07C38.93 302.67 38.09 302.56 38.1 302.51Z" fill="#455A64"/>
<path d="M133.93 235.05C133.863 235.142 133.79 235.229 133.71 235.31C133.54 235.5 133.31 235.74 133.02 236.04L130.33 238.83C127.98 241.23 124.56 244.69 120.33 248.91C111.8 257.37 99.84 268.91 86.33 281.24C79.55 287.42 73.05 293.24 67.03 298.45C65.5499 299.731 63.9136 300.82 62.16 301.69C60.4702 302.508 58.5903 302.854 56.72 302.69C55.0024 302.468 53.3409 301.929 51.82 301.1C50.4391 300.356 49.1034 299.532 47.82 298.63C42.82 295.29 38.82 292.45 36.21 290.39C34.88 289.39 33.86 288.55 33.21 287.99L32.43 287.35C32.26 287.2 32.17 287.12 32.18 287.11L32.46 287.3L33.27 287.91L36.36 290.23C39.05 292.23 43.03 295.03 48.05 298.32C49.3359 299.203 50.6714 300.011 52.05 300.74C53.5318 301.539 55.1494 302.054 56.82 302.26C58.6123 302.412 60.4118 302.066 62.02 301.26C63.7342 300.406 65.3308 299.334 66.77 298.07C72.77 292.86 79.26 287.02 86.03 280.85C99.44 268.51 111.44 257 120 248.65L130.16 238.65L133 236L133.72 235.3C133.784 235.212 133.854 235.128 133.93 235.05Z" fill="#455A64"/>
<path d="M99.73 359.54L99.09 359.11L97.22 357.81C95.58 356.66 93.22 354.96 90.22 352.6C86.5538 349.773 83.2013 346.562 80.22 343.02C78.38 340.784 76.7905 338.352 75.48 335.77C73.9954 332.876 72.957 329.774 72.4 326.57C71.7661 323.029 71.9266 319.391 72.87 315.92C73.9831 312.193 75.7766 308.704 78.16 305.63C80.6814 302.351 83.3963 299.226 86.29 296.27C89.21 293.18 92.29 290.02 95.41 286.83C108.01 274.01 122.51 260.59 136.94 245.71C138.77 243.83 140.56 241.93 142.34 240.06L142.42 239.98H142.52L174.47 239.19H174.71V239.43C175.81 255.33 176.64 270.19 176.77 283.54C176.85 290.21 176.77 296.54 176.61 302.34C176.547 307.738 176.052 313.121 175.13 318.44C174.363 322.784 172.972 326.994 171 330.94C169.525 333.885 167.625 336.598 165.36 338.99C163.949 340.488 162.361 341.807 160.63 342.92C160.038 343.313 159.424 343.67 158.79 343.99L159.24 343.7C159.54 343.5 160.01 343.26 160.58 342.85C162.284 341.707 163.845 340.364 165.23 338.85C167.456 336.465 169.325 333.77 170.78 330.85C172.697 326.911 174.044 322.719 174.78 318.4C175.672 313.095 176.144 307.729 176.19 302.35C176.33 296.51 176.39 290.23 176.3 283.56C176.14 270.23 175.3 255.39 174.17 239.49L174.42 239.72L142.48 240.53L142.66 240.44C140.88 242.32 139.09 244.22 137.25 246.1C122.81 260.99 108.3 274.41 95.69 287.19C92.53 290.383 89.4866 293.527 86.56 296.62C83.6725 299.554 80.9611 302.656 78.44 305.91C76.1028 308.928 74.3371 312.347 73.23 316C72.2967 319.414 72.126 322.992 72.73 326.48C73.2684 329.65 74.2797 332.721 75.73 335.59C77.0099 338.162 78.5765 340.58 80.4 342.8C83.3493 346.342 86.6643 349.564 90.29 352.41C93.29 354.79 95.65 356.51 97.29 357.7L99.13 359.04C99.53 359.37 99.73 359.54 99.73 359.54Z" fill="#455A64"/>
<path d="M186.08 233.37C186.091 233.473 186.091 233.577 186.08 233.68C186.08 233.92 186.08 234.22 186.08 234.6C186.08 235.44 185.99 236.6 185.93 238.13C185.79 241.19 185.59 245.63 185.4 251.13C185.01 262.13 184.81 277.24 185.22 293.97C185.39 302.31 185.13 310.44 182.89 317.42C180.855 323.577 177.434 329.184 172.89 333.81C169.871 336.92 166.517 339.687 162.89 342.06C161.6 342.88 160.58 343.5 159.89 343.89L159.08 344.33C158.992 344.387 158.898 344.434 158.8 344.47C158.8 344.47 158.88 344.4 159.06 344.29L159.83 343.8C160.53 343.39 161.52 342.74 162.83 341.89C166.413 339.472 169.728 336.68 172.72 333.56C177.178 328.946 180.529 323.379 182.52 317.28C184.71 310.37 184.96 302.28 184.79 293.97C184.38 277.24 184.64 262.07 185.12 251.11C185.36 245.63 185.61 241.2 185.81 238.11C185.92 236.61 186.01 235.43 186.07 234.58C186.07 234.21 186.13 233.9 186.15 233.67C186.116 233.573 186.093 233.472 186.08 233.37Z" fill="#455A64"/>
<path d="M406.98 268.35H386.78V464.89H406.98V268.35Z" fill="#455A64"/>
<path d="M407 464.91H386.75V268.32H407V464.91ZM386.8 464.86H407V268.37H386.8V464.86Z" fill="#263238"/>
<path d="M471.682 199.803L307.089 210.331L314.225 321.903L478.819 311.375L471.682 199.803Z" fill="white"/>
<path d="M478.83 311.34C478.83 311.34 478.77 310.65 478.68 309.34C478.59 308.03 478.45 306.03 478.28 303.45C477.94 298.29 477.43 290.71 476.79 281.01C475.52 261.62 473.7 233.75 471.48 199.8L471.7 200L307.12 210.57L307.36 210.29C309.9 250.08 312.36 287.9 314.48 321.86L314.23 321.64L432.85 314.17L466.72 312.06L475.72 311.51L478.04 311.38H478.84L478.07 311.45L475.78 311.61L466.83 312.21L433 314.4L314.24 322.12H314V321.88C311.82 287.88 309.39 250.1 306.83 210.31V210.05H307.1L471.69 199.56H471.89V199.77C474.02 233.77 475.77 261.69 476.99 281.11C477.58 290.8 478.05 298.36 478.37 303.52C478.52 306.08 478.64 308.04 478.72 309.37C478.8 310.7 478.83 311.34 478.83 311.34Z" fill="#263238"/>
<path d="M358.694 240.322L357.264 222.56L363.229 222.079C364.296 221.994 365.19 222.128 365.91 222.482C366.628 222.821 367.187 223.365 367.586 224.112C367.983 224.846 368.226 225.76 368.314 226.857C368.425 228.231 368.283 229.302 367.889 230.069C367.493 230.822 366.919 231.369 366.167 231.709C365.414 232.049 364.556 232.258 363.591 232.335L362.012 232.463L362.619 240.006L358.694 240.322ZM361.791 229.721L363.107 229.615C363.589 229.577 363.948 229.46 364.182 229.264C364.417 229.069 364.556 228.793 364.601 228.436C364.661 228.078 364.669 227.628 364.625 227.088C364.589 226.634 364.52 226.243 364.42 225.912C364.333 225.566 364.157 225.301 363.892 225.116C363.627 224.931 363.232 224.86 362.706 224.902L361.412 225.007L361.791 229.721ZM369.338 239.465L371.264 221.433L375.737 221.073L380.478 238.569L376.86 238.86L375.966 235.158L373.357 235.368L373.044 239.167L369.338 239.465ZM373.519 232.993L375.405 232.841L373.904 225.988L373.519 232.993ZM372.203 219.944L373.23 215.425L376.87 215.132L374.462 219.763L372.203 219.944ZM386.642 238.337C385.414 238.436 384.421 238.259 383.663 237.805C382.92 237.349 382.358 236.674 381.977 235.777C381.609 234.865 381.377 233.802 381.279 232.589L380.799 226.624C380.698 225.367 380.771 224.265 381.018 223.318C381.266 222.371 381.757 221.618 382.492 221.059C383.24 220.483 384.287 220.142 385.632 220.033C386.947 219.927 387.996 220.064 388.777 220.442C389.572 220.82 390.162 221.383 390.546 222.132C390.93 222.881 391.164 223.774 391.247 224.812L391.339 225.952L387.501 226.261L387.385 224.814C387.354 224.434 387.297 224.085 387.213 223.769C387.143 223.45 387.005 223.204 386.8 223.029C386.608 222.839 386.307 222.76 385.898 222.793C385.474 222.827 385.176 222.969 385.005 223.218C384.833 223.452 384.731 223.74 384.7 224.081C384.683 224.421 384.689 224.774 384.718 225.139L385.38 233.362C385.412 233.757 385.479 234.127 385.58 234.472C385.695 234.801 385.863 235.067 386.086 235.27C386.321 235.457 386.637 235.535 387.031 235.503C387.441 235.47 387.746 235.335 387.948 235.098C388.15 234.861 388.28 234.564 388.34 234.206C388.399 233.848 388.413 233.471 388.381 233.077L388.213 230.994L386.613 231.122L386.427 228.82L391.559 228.407L392.3 237.617L389.712 237.825L389.375 236.374C389.181 236.89 388.871 237.334 388.445 237.707C388.018 238.065 387.416 238.275 386.642 238.337ZM394.779 237.417L393.349 219.655L397.274 219.339L398.704 237.101L394.779 237.417ZM401.353 236.888L399.923 219.126L402.686 218.903L407.015 227.163L406.326 218.61L409.572 218.349L411.001 236.112L408.348 236.325L403.966 227.408L404.708 236.618L401.353 236.888ZM412.79 235.968L414.715 217.935L419.189 217.575L423.93 235.071L420.311 235.362L419.417 231.66L416.808 231.87L416.496 235.669L412.79 235.968ZM416.97 229.495L418.856 229.344L417.355 222.49L416.97 229.495ZM376.386 272.005L374.956 254.242L377.719 254.02L382.048 262.279L381.359 253.727L384.605 253.466L386.034 271.228L383.381 271.442L378.999 262.524L379.741 271.735L376.386 272.005ZM387.823 271.084L389.748 253.051L394.222 252.691L398.963 270.187L395.344 270.479L394.45 266.776L391.841 266.987L391.529 270.786L387.823 271.084ZM392.003 264.612L393.889 264.46L392.388 257.606L392.003 264.612ZM393.602 250.755C393.237 250.784 392.893 250.724 392.572 250.573C392.251 250.422 391.945 250.278 391.655 250.139C391.363 249.986 391.07 249.921 390.778 249.945C390.456 249.971 390.252 250.083 390.165 250.281C390.077 250.465 390.042 250.674 390.061 250.907L388.351 251.045C388.302 250.446 388.318 249.907 388.397 249.43C388.476 248.953 388.652 248.571 388.923 248.284C389.193 247.983 389.576 247.812 390.074 247.772C390.439 247.743 390.767 247.797 391.058 247.936C391.363 248.073 391.661 248.211 391.952 248.35C392.243 248.488 392.541 248.545 392.848 248.52C393.097 248.5 393.266 248.406 393.355 248.237C393.445 248.067 393.48 247.866 393.461 247.632L395.04 247.505C395.078 247.973 395.079 248.451 395.045 248.939C395.026 249.426 394.904 249.841 394.682 250.182C394.474 250.523 394.114 250.714 393.602 250.755ZM405.586 269.919C404.256 270.026 403.185 269.877 402.372 269.472C401.56 269.066 400.95 268.438 400.543 267.588C400.136 266.738 399.884 265.706 399.786 264.493L399.255 257.892C399.156 256.664 399.24 255.605 399.507 254.716C399.774 253.826 400.276 253.124 401.015 252.608C401.752 252.078 402.786 251.759 404.116 251.652C405.461 251.544 406.54 251.693 407.352 252.098C408.178 252.488 408.794 253.1 409.2 253.936C409.605 254.771 409.858 255.803 409.956 257.031L410.488 263.632C410.585 264.845 410.501 265.904 410.236 266.808C409.97 267.712 409.461 268.43 408.71 268.961C407.972 269.492 406.931 269.811 405.586 269.919ZM405.362 267.134C405.772 267.101 406.063 266.975 406.237 266.755C406.41 266.535 406.513 266.262 406.546 265.935C406.578 265.609 406.581 265.278 406.554 264.941L405.866 256.389C405.837 256.038 405.782 255.712 405.699 255.409C405.614 255.092 405.469 254.839 405.262 254.65C405.056 254.461 404.748 254.382 404.338 254.415C403.958 254.446 403.681 254.571 403.508 254.791C403.334 255.011 403.231 255.284 403.199 255.611C403.165 255.922 403.162 256.254 403.19 256.604L403.879 265.157C403.906 265.493 403.954 265.82 404.024 266.138C404.108 266.455 404.246 266.709 404.438 266.899C404.645 267.089 404.953 267.167 405.362 267.134ZM337.874 308.211L336.444 290.449L344.426 289.806L344.641 292.482L340.584 292.808L340.939 297.216L344.031 296.967L344.25 299.686L341.158 299.935L341.585 305.242L345.686 304.912L345.9 307.565L337.874 308.211ZM347.682 307.422L346.252 289.659L349.015 289.437L353.344 297.696L352.655 289.144L355.901 288.883L357.33 306.645L354.677 306.859L350.295 297.942L351.037 307.152L347.682 307.422ZM365.083 306.286C363.738 306.394 362.651 306.239 361.823 305.82C361.008 305.386 360.404 304.743 360.012 303.891C359.619 303.025 359.374 301.993 359.277 300.794L358.762 294.391C358.663 293.163 358.739 292.097 358.99 291.194C359.24 290.277 359.733 289.545 360.469 289.001C361.219 288.455 362.267 288.127 363.612 288.019C364.928 287.913 365.969 288.05 366.735 288.43C367.515 288.794 368.09 289.351 368.459 290.101C368.828 290.851 369.054 291.731 369.135 292.739L369.258 294.274L365.421 294.583L365.278 292.807C365.25 292.456 365.201 292.122 365.131 291.804C365.076 291.484 364.952 291.229 364.76 291.039C364.567 290.834 364.259 290.748 363.835 290.782C363.425 290.815 363.127 290.95 362.94 291.185C362.768 291.42 362.666 291.708 362.634 292.049C362.616 292.374 362.622 292.719 362.652 293.085L363.324 301.44C363.356 301.834 363.415 302.197 363.5 302.529C363.599 302.845 363.752 303.097 363.958 303.287C364.178 303.46 364.478 303.532 364.858 303.501C365.268 303.468 365.552 303.342 365.711 303.124C365.869 302.89 365.956 302.604 365.973 302.264C365.99 301.924 365.984 301.579 365.956 301.228L365.806 299.364L369.643 299.055L369.767 300.59C369.848 301.599 369.767 302.517 369.525 303.346C369.296 304.159 368.828 304.83 368.12 305.357C367.425 305.87 366.413 306.179 365.083 306.286ZM377.439 305.292C376.109 305.399 375.037 305.249 374.225 304.844C373.412 304.439 372.803 303.811 372.396 302.961C371.989 302.111 371.737 301.079 371.639 299.865L371.108 293.265C371.009 292.037 371.093 290.978 371.36 290.088C371.627 289.199 372.129 288.496 372.867 287.981C373.605 287.45 374.638 287.132 375.969 287.025C377.314 286.916 378.393 287.065 379.205 287.47C380.031 287.86 380.647 288.473 381.052 289.308C381.458 290.144 381.71 291.175 381.809 292.403L382.341 299.004C382.438 300.217 382.354 301.276 382.089 302.18C381.823 303.085 381.314 303.802 380.562 304.334C379.825 304.864 378.784 305.183 377.439 305.292ZM377.215 302.507C377.624 302.474 377.916 302.347 378.089 302.127C378.263 301.907 378.366 301.634 378.399 301.308C378.431 300.981 378.434 300.65 378.407 300.314L377.718 291.761C377.69 291.411 377.635 291.084 377.551 290.782C377.467 290.465 377.322 290.212 377.115 290.022C376.908 289.833 376.601 289.755 376.191 289.788C375.811 289.818 375.534 289.944 375.361 290.164C375.187 290.383 375.084 290.657 375.051 290.983C375.018 291.295 375.015 291.626 375.043 291.977L375.732 300.529C375.759 300.865 375.807 301.193 375.877 301.511C375.961 301.828 376.099 302.081 376.291 302.272C376.498 302.461 376.806 302.539 377.215 302.507ZM385.18 304.404L383.75 286.641L386.513 286.419L390.841 294.678L390.153 286.126L393.399 285.864L394.828 303.627L392.175 303.841L387.793 294.923L388.535 304.134L385.18 304.404ZM399.073 303.285L397.878 288.439L395.202 288.655L394.967 285.738L404.243 284.991L404.478 287.908L401.825 288.122L403.02 302.968L399.073 303.285ZM407.237 302.628L405.807 284.866L410.697 284.472C411.896 284.375 412.945 284.423 413.843 284.616C414.742 284.809 415.46 285.229 415.997 285.877C416.549 286.51 416.874 287.447 416.974 288.69C417.033 289.421 417.027 290.076 416.956 290.656C416.885 291.235 416.705 291.75 416.418 292.2C416.144 292.634 415.726 293.013 415.163 293.338L418.289 301.738L414.232 302.065L411.64 294.262L410.522 294.352L411.162 302.312L407.237 302.628ZM410.34 292.093L411.436 292.005C411.992 291.96 412.415 291.83 412.707 291.616C412.998 291.386 413.187 291.084 413.274 290.709C413.375 290.319 413.405 289.86 413.362 289.334C413.301 288.574 413.114 287.993 412.803 287.591C412.491 287.189 411.962 287.019 411.216 287.079L409.944 287.181L410.34 292.093ZM419.531 301.639L421.456 283.606L425.93 283.246L430.671 300.742L427.052 301.033L426.158 297.331L423.549 297.541L423.237 301.34L419.531 301.639ZM423.711 295.166L425.597 295.014L424.096 288.161L423.711 295.166ZM432.464 300.597L431.034 282.835L435.53 282.473C437.079 282.348 438.301 282.449 439.196 282.774C440.089 283.085 440.744 283.642 441.162 284.448C441.579 285.238 441.84 286.291 441.946 287.607L442.465 294.054C442.572 295.384 442.485 296.488 442.202 297.364C441.918 298.225 441.361 298.888 440.53 299.352C439.714 299.815 438.538 300.109 437.003 300.232L432.464 300.597ZM436.171 297.562L436.785 297.513C437.384 297.465 437.808 297.342 438.057 297.146C438.306 296.949 438.446 296.673 438.476 296.317C438.521 295.961 438.522 295.519 438.48 294.993L437.857 287.252C437.814 286.725 437.736 286.305 437.623 285.99C437.524 285.675 437.337 285.454 437.062 285.329C436.787 285.204 436.357 285.165 435.772 285.212L435.18 285.26L436.171 297.562ZM444.201 299.653L446.126 281.62L450.6 281.26L455.341 298.756L451.723 299.047L450.829 295.345L448.219 295.555L447.907 299.354L444.201 299.653ZM448.381 293.18L450.267 293.029L448.766 286.175L448.381 293.18Z" fill="#FF725E"/>
</svg>
